<svg width="203" height="382" viewBox="0 0 203 382" fill="none" xmlns="http://www.w3.org/2000/svg">
<mask id="mask0_474_1120" style="mask-type:luminance" maskUnits="userSpaceOnUse" x="96" y="0" width="107" height="107">
<path d="M96.2344 0H202.331V106.524H96.2344V0Z" fill="white"/>
</mask>
<g mask="url(#mask0_474_1120)">
<path d="M202.28 53.0197C202.28 54.7534 202.187 56.4757 202.014 58.2095C201.852 59.9317 201.598 61.6423 201.263 63.3415C200.916 65.0406 200.5 66.7166 199.991 68.381C199.494 70.0339 198.916 71.6636 198.246 73.2703C197.587 74.8654 196.847 76.4373 196.027 77.9631C195.206 79.4888 194.316 80.9798 193.357 82.4131C192.397 83.8579 191.369 85.245 190.271 86.5858C189.172 87.9265 188.005 89.2096 186.78 90.4348C185.555 91.66 184.272 92.8274 182.931 93.9254C181.59 95.0235 180.203 96.0522 178.758 97.0116C177.325 97.9825 175.834 98.8725 174.308 99.6816C172.782 100.502 171.222 101.242 169.615 101.912C168.02 102.571 166.39 103.149 164.726 103.658C163.073 104.155 161.397 104.582 159.698 104.918C157.999 105.253 156.277 105.507 154.555 105.681C152.832 105.854 151.11 105.935 149.376 105.935C147.642 105.935 145.909 105.854 144.186 105.681C142.464 105.507 140.754 105.253 139.054 104.918C137.355 104.582 135.679 104.155 134.015 103.658C132.362 103.149 130.732 102.571 129.126 101.912C127.531 101.242 125.959 100.502 124.433 99.6816C122.907 98.8725 121.428 97.9825 119.983 97.0116C118.538 96.0522 117.151 95.0235 115.81 93.9254C114.469 92.8274 113.186 91.66 111.961 90.4348C110.736 89.2096 109.58 87.9265 108.482 86.5858C107.384 85.245 106.355 83.8579 105.384 82.4131C104.425 80.9798 103.535 79.4888 102.714 77.9631C101.905 76.4373 101.165 74.8654 100.495 73.2703C99.8362 71.6636 99.2467 70.0339 98.7497 68.381C98.2411 66.7166 97.825 65.0406 97.4898 63.3415C97.1546 61.6423 96.9003 59.9317 96.7269 58.2095C96.5536 56.4757 96.4727 54.7534 96.4727 53.0197C96.4727 51.2859 96.5536 49.5521 96.7269 47.8299C96.9003 46.1076 97.1546 44.397 97.4898 42.6978C97.825 40.9987 98.2411 39.3112 98.7497 37.6583C99.2467 35.9939 99.8362 34.3641 100.495 32.769C101.165 31.1624 101.905 29.602 102.714 28.0762C103.535 26.539 104.425 25.0595 105.384 23.6146C106.355 22.1814 107.384 20.7828 108.482 19.442C109.58 18.1128 110.736 16.8297 111.961 15.6045C113.186 14.3678 114.469 13.2119 115.81 12.1139C117.151 11.0158 118.538 9.97552 119.983 9.01615C121.428 8.05679 122.907 7.16678 124.433 6.34612C125.959 5.52547 127.531 4.78572 129.126 4.12688C130.732 3.46804 132.362 2.87855 134.015 2.38153C135.679 1.87295 137.355 1.45685 139.054 1.12165C140.754 0.774891 142.464 0.520599 144.186 0.358781C145.909 0.185401 147.642 0.104492 149.376 0.104492C151.11 0.104492 152.832 0.185401 154.555 0.358781C156.277 0.520599 157.999 0.774891 159.698 1.12165C161.397 1.45685 163.073 1.87295 164.726 2.38153C166.39 2.87855 168.02 3.46804 169.615 4.12688C171.222 4.78572 172.782 5.52547 174.308 6.34612C175.834 7.16678 177.325 8.05679 178.758 9.01615C180.203 9.97552 181.59 11.0158 182.931 12.1139C184.272 13.2119 185.555 14.3678 186.78 15.6045C188.005 16.8297 189.172 18.1128 190.271 19.442C191.369 20.7828 192.397 22.1814 193.357 23.6146C194.316 25.0595 195.206 26.539 196.027 28.0762C196.847 29.602 197.587 31.1624 198.246 32.769C198.916 34.3641 199.494 35.9939 199.991 37.6583C200.5 39.3112 200.916 40.9987 201.263 42.6978C201.598 44.397 201.852 46.1076 202.014 47.8299C202.187 49.5521 202.28 51.2859 202.28 53.0197Z" fill="black"/>
</g>
<path d="M74.6188 145.36C78.8839 135.963 74.7922 124.878 65.4297 120.521C56.0095 116.129 44.8208 120.22 40.4401 129.641C39.2033 132.299 10.4918 196.438 39.2958 342.654C41.0643 351.623 48.9241 357.842 57.7317 357.842C58.9338 357.842 60.159 357.714 61.3842 357.483C71.5789 355.472 78.2135 345.578 76.2023 335.383C50.3227 203.997 74.064 146.666 74.6188 145.36Z" fill="black"/>
<path fill-rule="evenodd" clip-rule="evenodd" d="M22.1578 254.866C22.313 257.376 18.875 258.233 17.95 255.895C-3.56538 201.508 -5.69597 159.859 11.326 129.479C26.2366 102.86 52.5323 92.2376 70.529 91.2204C90.0052 90.0993 106.626 105.01 107.725 124.463C108.39 136.249 104.265 147.066 95.9823 153.973C94.1887 155.468 92.5535 157.178 91.4399 159.231V159.231C86.5834 168.183 72.0316 202.137 114.417 273.002C115.73 275.194 116.754 277.483 117.54 279.806C117.601 279.985 117.663 280.127 117.766 280.286C122.02 286.901 135.927 310.383 145.612 348.273C150.068 365.711 136.12 381.711 118.121 381.711V381.711C103.722 381.711 91.6299 371.274 87.6825 357.426C86.0945 351.855 84.4106 346.775 82.7213 342.192C82.6153 341.905 82.5756 341.607 82.5748 341.301C82.5704 339.51 82.0463 336.953 81.658 335.06C81.6055 334.804 81.5555 334.56 81.5097 334.332C56.0346 205.003 79.3482 148.042 79.5447 147.592C85.0235 135.548 79.7065 121.192 67.7087 115.609C64.4839 114.106 61.051 113.344 57.5141 113.344C48.1169 113.344 39.4942 118.845 35.5412 127.364C34.5627 129.464 16.852 169.034 22.1578 254.866ZM92.6838 156.553C92.7267 156.481 92.6424 156.399 92.5712 156.444C92.5699 156.444 92.5687 156.445 92.5674 156.446C92.5558 156.453 92.5463 156.464 92.5401 156.476C92.4969 156.562 92.6344 156.636 92.6838 156.553V156.553Z" fill="black"/>
</svg>
